# xmcd
# 
# Track frame offsets:
#     182
#     20970
#     48702
#     68365
#     85422
#     110502
#     127170
#     149575
#     173032
#     198215
#     221205
#     241747
#     264997
#     290687
# 
# Disc length: 4176
# 
# Revision: 44
# Processed by: cddbd v1.5.2PL0 Copyright (c) Steve Scherf et al.
# Submitted via: fre:ac v1.0.31
# 
DISCID=db104e0e
DTITLE=Rush - Chronicles Disc 2
DYEAR=1990
DGENRE=Rock/Pop
TTITLE0=Tom Sawyer
TTITLE1=Red Barchetta
TTITLE2=Limelight
TTITLE3=A Passage To Bangkok (Live)
TTITLE4=Subdivisions
TTITLE5=New World Man
TTITLE6=Distant Early Warning
TTITLE7=Red Sector A
TTITLE8=The Big Money
TTITLE9=Manhattan Project
TTITLE10=Force Ten
TTITLE11=Time Stand Still
TTITLE12=Mystic Rhythms (Live)
TTITLE13=Show Don't Tell
EXTD=
EXTT0=
EXTT1=
EXTT2=
EXTT3=
EXTT4=
EXTT5=
EXTT6=
EXTT7=
EXTT8=
EXTT9=
EXTT10=
EXTT11=
EXTT12=
EXTT13=
PLAYORDER=
